<!-- icon666.com - MILLIONS vector ICONS FREE --><svg id="Capa_1" enable-background="new 0 0 512 512" viewBox="0 0 512 512" xmlns="http://www.w3.org/2000/svg"><path d="m472.642 197.854-55.66-55.66c-5.857-5.857-15.355-5.857-21.213 0s-5.858 15.355 0 21.213l30.054 30.054h-67.783v-178.461c0-8.284-6.716-15-15-15h-293.075c-.015 0-.027.002-.042.002-2.598.007-5.194.687-7.515 2.042-4.609 2.687-7.443 7.62-7.443 12.956v386.921c0 5.406 2.909 10.394 7.614 13.056l168.072 95.079c2.293 1.297 4.839 1.944 7.386 1.944 2.611 0 5.224-.682 7.557-2.043 4.609-2.688 7.443-7.621 7.443-12.957v-80.08h110.002c8.284 0 15-6.716 15-15v-178.46h67.783l-30.054 30.054c-5.858 5.857-5.858 15.355 0 21.213 2.929 2.929 6.768 4.393 10.606 4.393s7.678-1.465 10.606-4.393l55.66-55.66c5.86-5.858 5.86-15.356.002-21.213zm-269.605 273.426-138.072-78.107v-352.453l138.072 78.107zm125.002-84.36h-95.002v-276.841c0-5.406-2.909-10.394-7.614-13.056l-118.478-67.023h221.094v163.46h-34.999c-8.284 0-15 6.716-15 15s6.716 15 15 15h34.999z"></path></svg>